v 0.510000 0.510000 -0.205312
v 0.510000 -0.510000 -0.205312
v -0.510000 -0.510000 -0.205312
v -0.510000 0.510000 -0.205312
v 0.510000 0.510000 0.205312
v 0.510000 -0.510000 0.205312
v -0.510000 -0.510000 0.205312
v -0.510000 0.510000 0.205312
vn 0.000000 1.000000 0.000001
vn 0.000000 1.000000 0.000000
vn -1.000000 0.000000 -0.000000
vn -0.000000 -1.000000 -0.000001
vn -0.000000 -1.000000 0.000000
vn 1.000000 0.000000 -0.000001
vn 1.000000 -0.000001 0.000001
vn -0.000000 -0.000000 1.000000
vn 0.000000 0.000000 -1.000000
f 5//1 1//1 4//1
f 5//2 4//2 8//2
f 3//3 7//3 8//3
f 3//3 8//3 4//3
f 2//4 6//4 3//4
f 6//5 7//5 3//5
f 1//6 5//6 2//6
f 5//7 6//7 2//7
f 5//8 8//8 6//8
f 8//8 7//8 6//8
f 1//9 2//9 3//9
f 1//9 3//9 4//9
